<svg xmlns="http://www.w3.org/2000/svg" fill-rule="evenodd" stroke-linejoin="round" stroke-miterlimit="2" clip-rule="evenodd" viewBox="0 0 64 64" id="email"><rect width="64" height="64" fill="none"></rect><path d="M54,22l-13,-0c-0.552,0 -1,-0.448 -1,-1c-0,-0.552 0.448,-1 1,-1l14,0c0.552,0 1,0.448 1,1l0,31c0,0.552 -0.448,1 -1,1l-46,0c-0.552,-0 -1,-0.448 -1,-1l0,-31c-0,-0.552 0.448,-1 1,-1l14,0c0.552,0 1,0.448 1,1c-0,0.552 -0.448,1 -1,1l-13,0l0,29l44,0l0,-29Z" fill="#ffffff" class="color000000 svgShape"></path><path d="M32,38.703l22.363,-18.474c0.426,-0.351 1.056,-0.291 1.408,0.134c0.351,0.426 0.291,1.056 -0.134,1.408l-23,19c-0.37,0.305 -0.904,0.305 -1.274,-0l-23,-19c-0.425,-0.352 -0.485,-0.982 -0.134,-1.408c0.352,-0.425 0.982,-0.485 1.408,-0.134l22.363,18.474Z" fill="#ffffff" class="color000000 svgShape"></path><path d="M32,11c-5.519,-0 -10,4.481 -10,10c0,5.519 4.481,10 10,10c5.519,0 10,-4.481 10,-10c0,-5.519 -4.481,-10 -10,-10Zm0,2c4.415,-0 8,3.585 8,8c0,4.415 -3.585,8 -8,8c-4.415,0 -8,-3.585 -8,-8c0,-4.415 3.585,-8 8,-8Z" fill="#ffffff" class="color000000 svgShape"></path><path d="M31,17l0,5c-0,0.552 0.448,1 1,1c0.552,0 1,-0.448 1,-1l0,-5c-0,-0.552 -0.448,-1 -1,-1c-0.552,0 -1,0.448 -1,1Z" fill="#ffffff" class="color000000 svgShape"></path><circle cx="32" cy="25" r="1" fill="#ffffff" class="color000000 svgShape"></circle><path d="M9.62 52.785l19-15c.433-.342.507-.971.165-1.405-.342-.433-.971-.507-1.405-.165l-19 15c-.433.342-.507.971-.165 1.405.342.433.971.507 1.405.165zM55.62 51.215l-19-15c-.434-.342-1.063-.268-1.405.165-.342.434-.268 1.063.165 1.405l19 15c.434.342 1.063.268 1.405-.165.342-.434.268-1.063-.165-1.405z" fill="#ffffff" class="color000000 svgShape"></path></svg>